<?xml version="1.0" encoding="utf-8"?>
<!-- Generator: Adobe Illustrator 16.1.0, SVG Export Plug-In . SVG Version: 6.00 Build 0)  -->
<!DOCTYPE svg PUBLIC "-//W3C//DTD SVG 1.1//EN" "http://www.w3.org/Graphics/SVG/1.1/DTD/svg11.dtd">
<svg version="1.1" id="Layer_1" xmlns="http://www.w3.org/2000/svg" xmlns:xlink="http://www.w3.org/1999/xlink" x="0px" y="0px"
	 width="93.25px" height="93.25px" viewBox="0 0 93.25 93.25" enable-background="new 0 0 93.25 93.25" xml:space="preserve">
<path d="M46.813-0.21c-25.651,0-46.438,20.787-46.438,46.438c0,25.642,20.787,46.427,46.438,46.427
	c25.642,0,46.437-20.785,46.437-46.427C93.25,20.576,72.455-0.21,46.813-0.21z M39.702,33.22h-1.638
	c0-3.662-1.639-5.088-4.906-5.088h-9.205v16.093h5.938c3.064,0,3.671-1.628,4.076-4.278h1.446v11.42h-1.446
	c-0.405-3.065-1.012-4.278-4.289-4.278h-5.725v13.646c0,5.097,1.224,5.703,4.501,5.703v1.63H12.918v-1.63
	c3.884,0,4.501-1.012,4.501-5.703V30.782c0-2.852-1.234-4.076-4.501-4.076v-1.427H34.19c3.671,0,4.491-0.202,5.098-1.426h1.437
	L39.702,33.22z M77.532,68.005c-0.8-0.191-1.588-0.191-2.376-0.191c-1.589,0-4.38,0.778-7.749,0.778
	c-12.916,0-22.435-7.719-22.435-21.96c0-12.066,8.942-21.362,22.637-21.362c3.167,0,6.746,0.597,9.72,1.781
	c0.608-0.597,0.8-0.981,1.387-1.578h1.193c-0.191,2.174-0.992,9.295-0.992,9.295h-1.193c-0.788-4.147-2.973-6.929-9.923-6.929
	c-8.333,0-15.88,6.534-15.88,18.602c0,13.645,7.738,19.591,16.285,19.591c5.553,0,8.921-3.165,11.106-7.13l1.396,0.597
	L77.532,68.005z"/>
</svg>
