<?xml version="1.0" encoding="utf-8"?>
<!-- Generator: Adobe Illustrator 16.1.0, SVG Export Plug-In . SVG Version: 6.00 Build 0)  -->
<!DOCTYPE svg PUBLIC "-//W3C//DTD SVG 1.1//EN" "http://www.w3.org/Graphics/SVG/1.1/DTD/svg11.dtd">
<svg version="1.1" id="Layer_1" xmlns="http://www.w3.org/2000/svg" xmlns:xlink="http://www.w3.org/1999/xlink" x="0px" y="0px"
	 width="232px" height="234.82px" viewBox="0 0 232 234.82" enable-background="new 0 0 232 234.82" xml:space="preserve">
<g>
	<g>
		<rect x="0.075" y="0.891" width="27.131" height="180.514"/>
		<polygon points="62.965,0.891 62.965,178.527 165.736,178.527 165.736,140.555 196.156,140.555 196.037,207.684 -0.044,207.684 
			0.075,234.82 232.158,234.82 232.158,0.891 		"/>
	</g>
	<g>
		<g>
			<path d="M97.516,263.999c-1.084-0.28-2.289-0.401-3.574-0.401c-4.779,0-6.988,2.894-6.988,7.992v1.688
				c0,6.227,2.611,9.076,7.39,9.076c1.205,0,2.45-0.16,3.615-0.48v-3.938h4.377v5.342c-1.285,1.406-4.177,3.014-8.394,3.014
				c-7.47,0-12.41-4.898-12.41-13.614v-0.081c0-7.99,4.417-13.133,12.008-13.133c4.417,0,7.229,1.446,8.474,2.771v5.423h-4.498
				V263.999z"/>
			<path d="M105.874,275.727v-0.08c0-6.227,4.137-9.92,9.92-9.92c5.783,0,9.919,3.693,9.919,9.879v0.08
				c0,7.312-4.699,10.441-9.919,10.441C110.573,286.127,105.874,282.996,105.874,275.727z M120.573,276.289v-1.446
				c0-3.694-1.929-5.702-4.779-5.702c-2.852,0-4.739,2.008-4.739,5.702v1.446c0,4.898,2.088,6.506,4.739,6.506
				C118.443,282.794,120.573,281.188,120.573,276.289z"/>
			<path d="M128.328,282.915c0-1.767,1.445-3.213,3.132-3.213c1.728,0,3.133,1.446,3.133,3.213c0,1.688-1.405,3.133-3.133,3.133
				C129.773,286.047,128.328,284.602,128.328,282.915z"/>
			<path d="M138.488,260.023h10.805v3.896H146v17.752h7.831v-3.735h4.378v7.752h-19.721v-3.613h2.33V263.92h-2.33V260.023z"/>
			<path d="M161.062,282.072h1.688l7.027-22.049h7.672l6.906,22.049h1.688v3.613h-10.201v-3.613h3.014l-1.125-3.855h-9.195
				l-1.165,3.855h2.972v3.613h-9.277v-3.613H161.062z M169.658,274.521h6.947l-3.453-11.606L169.658,274.521z"/>
			<path d="M188.859,260.023h11.646c5.463,0,8.756,2.168,8.756,6.746c0,3.653-1.928,5.582-6.063,6.063v0.12
				c4.539,0.32,7.029,2.089,7.029,5.623c0,4.337-2.25,7.107-9.881,7.107h-11.486v-3.615h2.289v-18.151h-2.289V260.023
				L188.859,260.023z M199.984,271.309c3.053,0,4.298-1.285,4.298-3.693c0-2.45-1.325-3.574-4.017-3.574h-4.018v7.27h3.736V271.309z
				 M200.064,281.991c4.098,0,5.021-1.164,5.021-3.614c0-2.57-1.405-3.574-5.103-3.574h-3.733v7.188H200.064L200.064,281.991z"/>
			<path d="M226.495,263.838c-1.004-0.281-2.088-0.4-3.093-0.4c-2.569,0-4.618,0.724-4.618,3.453c0,1.164,0.401,2.049,1.687,2.61
				c2.41,1.124,6.588,1.084,8.996,2.69c2.049,1.285,2.852,3.213,2.852,5.941c0,5.623-4.176,8.153-9.518,8.153
				c-4.418,0-7.511-1.245-9.035-2.649v-5.544h4.416v3.815c1.285,0.359,2.691,0.604,4.178,0.604c2.933,0,4.858-1.045,4.858-3.814
				c0-1.205-0.401-1.969-1.565-2.53c-1.688-0.964-5.982-1.204-8.395-2.53c-2.289-1.285-3.253-3.453-3.253-6.345
				c0-5.502,4.418-7.832,8.996-7.832c3.735,0,6.506,1.005,7.872,2.29v5.421h-4.378V263.838L226.495,263.838z"/>
		</g>
	</g>
</g>
</svg>
